<?xml version="1.0" encoding="UTF-8"?>
<svg id="Layer_2" data-name="Layer 2" xmlns="http://www.w3.org/2000/svg" viewBox="0 0 272.55 102.08">
  <defs>
    <style>
      .cls-1 {
        fill: #3c2415;
      }

      .cls-2 {
        fill: #e28f26;
      }

      .cls-3 {
        fill: #392416;
      }
    </style>
  </defs>
  <g id="Layer_1-2" data-name="Layer 1">
    <g>
      <g>
        <path class="cls-1" d="M262.65,17.12c-.97,0-1.95.16-2.92.57-.97.49-1.62,1.3-1.87,2.43-.08.32-.08.65-.08.97,0,1.14.49,2.11,1.22,3,.57.65,1.3,1.3,1.95,1.95,1.14,1.3,3.98,2.19,5.19,3.33,1.3,1.14,2.43,2.35,3.65,3.57,1.22,1.3,1.79,2.92,2.19,4.54.32,1.3.49,2.52.49,3.81,0,5.95-3.22,7.99-6.28,12.27-3.63,5.07-6.18,12.35-6.74,18.52-.42,4.65.33,9.33.28,14.01-.05,4.67-1.05,9.63-4.31,12.98s-9.3,4.24-12.53.86c-2.98-3.12-2.43-8.16-1.03-12.24,1.41-4.08,3.5-8.18,2.97-12.46-.93-7.5-9.25-11.85-11.98-18.9-3.8-9.84,4.6-18.28,13.88-18.28,1.05,0,2.11-.08,2.92-.32,1.95-.57,3.73-1.46,5.03-3.08.65-.81.97-1.79.97-2.68,0-.97-.41-1.95-1.14-2.6-.57-.65-1.06-1.3-1.62-1.95-.89-.89-2.27-1.7-3.33-2.43-.81-.49-1.54-1.06-2.19-1.62-.97-.89-1.95-1.87-2.84-2.84-1.22-1.38-1.95-2.76-2.84-4.71-.57-1.38-.73-2.27-.81-3.73v-.49c0-3.9,2.52-6.25,4.79-7.95,2.92-2.27,6.49-3,11.28-3.49,1.14-.16,2.35-.16,3.49-.16,3.33,0,7.14.49,10.39.49.97,0,1.38.32,1.54,1.22v4.79c0,.89,0,1.54.08,3,.08.81.08,1.22.08,2.03,0,1.46-.08,2.43-.08,3.81v.81c-.16.73-.73,1.22-1.46,1.22-2.52,0-5.27-.24-7.63-.24h-.73Z"/>
        <path class="cls-2" d="M242.93,83.37c-2.41,3.46-3.08,8.16-2.27,12.32.54,2.77,2.4,5.11,4.7,5.92,2.29.81,5.9.52,8.07-.94,5.3-3.55,8.11-11.08,1.9-12.03-4.03-.62.6-3.43-6.78-8.33-2.88-1.91-3.8-7.74-5.74-10.44,1.02,4.34,3.27,9,.12,13.51Z"/>
      </g>
      <path class="cls-1" d="M1.28,3c0-.72.24-1.6.96-1.68,1.44-.24,4.07-.32,6.95-.32,3.91,0,8.3.16,11.18.4,1.84.16,3.75.4,5.43.8,2.08.32,3.99,1.2,5.51,2.71,1.28,1.28,1.92,2.79,2.24,4.55.24,1.52.56,3.03.56,4.63,0,2.24-.32,4.39-.56,6.47-.48,2.55-.8,4.55-2.32,6.23-1.52,2.08-4.55,3.67-7.43,4.31-1.76.4-3.51.72-5.27.72h-.96c-.8,0-2.16,0-2.16.8v.72c0,3.91-.08,8.14-.08,12.62,0,3.11-.08,5.99-.08,9.1,0,.4.08,1.44.08,2.48,0,1.28-.08,2.63-.56,2.71-.72.16-1.04.16-1.6.16-1.36,0-2.71-.24-4.71-.24-.64,0-1.36.08-2.08.08-.88,0-2.48-.24-3.43-.24-.72,0-1.04.16-1.84.16-.64-.08-1.04-.48-1.12-1.12,0-2.55.08-5.03.16-7.59,0-1.44.08-2.87.08-4.31v-6.87c0-4.15.16-8.54.16-13.01v-2.63c0-1.04-.16-2.08-.16-3.11C.24,15.13.8,8.91,1.28,3ZM21.48,15.85c0-1.04-.32-1.76-1.04-2.16-.88-.56-1.92-1.12-3.27-1.12-.32,0-.64,0-.96.08-.64.08-.72.16-.8.8,0,.16,0,.24-.08.4v1.04c0,1.6.16,3.19.32,4.79,0,.08,0,.16.08.24.08,0,.24.08.32.08h.32c2.55,0,5.11-1.52,5.11-4.15Z"/>
      <path class="cls-1" d="M56.69,61.04c-.72.08-1.44.08-2.08.08-.96-.08-1.92-.08-2.87-.08-11.5,0-15.01-8.3-15.97-19.16-.16-1.2-.24-2.48-.24-3.67v-2.32c0-7.82.96-15.09,2.55-21.32.48-1.92,1.36-3.83,2.32-5.59,2.87-5.11,6.55-7.59,14.05-8.14.88-.08,1.76-.16,2.63-.16,6.55,0,12.69,2.8,14.77,7.03,1.6,3.51,2.55,6.63,2.95,11.34,0,.48.08.96.08,1.44.24,3.43.32,7.35.32,11.18v1.2c0,9.02-.08,17.41-4.31,22.36-3.03,3.67-7.9,5.83-14.21,5.83ZM57.41,14.65c-.4-.4-.88-.64-1.52-.64h-.08c-1.28.16-2.71,1.28-3.59,4.15-.32,1.12-.56,2.32-.64,3.51-.32,1.76-.16,3.75-.4,5.59-.08,1.92-.16,1.36-.16,2.63v.88c0,.88.08,1.6.08,2.48.08,2.71.08,2.79.4,5.35.16,2,1.6,8.22,4.07,8.22,3.91,0,4.31-5.35,4.47-8.94.24-2.8.4-2.55.4-5.91v-5.35c-.08-2.24-.88-9.82-3.03-11.98Z"/>
      <path class="cls-1" d="M93.9,6.35c0,8.7-.8,14.05-.8,23.47v.16c0,.88-.08,1.92-.08,2.8v1.12c0,3.27.08,6.63,2.16,7.98.56.4,1.52.8,2.55.8.96,0,1.92-.32,2.55-1.04.08-.16.24-.24.32-.4,1.2-1.52,2.4-4.47,2.4-8.78v-.4c0-8.78.56-16.93.56-25.31V2.36c0-.32.4-.32.72-.32h.48c5.59.16,6.55.16,12.14.8.72.08.72.88.72,1.68v1.04c0,3.35-.32,5.83-.32,9.26v1.04c.08.48.08,1.04.08,1.44,0,3.03-.08,6.23-.08,9.26v.56c0,2.08-.16,5.03-.32,7.11-.16,1.2-.08,2.55-.16,3.83-.16,1.92-.16,3.91-.32,5.83-1.2,9.58-4.39,14.37-12.93,16.53-.24,0-.56.16-.88.24-2.32.56-4.71,1.04-7.27,1.04-.96,0-2-.08-3.03-.24-1.52-.24-2.95-.64-4.23-1.36-3.91-1.92-6.15-5.67-7.43-10.3-1.84-6.55-1.76-14.85-1.92-22.76v-5.91c0-2.87.08-5.83.08-8.62v-1.76c0-2.71-.08-5.19-.08-7.82,0-.4.16-.72.56-.8.64-.08,1.2-.16,1.76-.16h10.62c.72,0,1.52,0,1.84.72.08.32.32,1.04.32,1.52v2.16Z"/>
      <path class="cls-1" d="M132.78,61.44c-2.24-.24-4.07-.96-5.67-2.16-3.11-2.4-4.95-6.47-5.51-10.78-.32-1.92-.48-3.91-.64-5.99-.16-1.44-.24-2.95-.32-4.39-.08-2.48-.16-4.79-.24-7.11v-1.76c0-3.19.16-6.31.56-9.26.4-3.51,1.2-6.79,2.4-9.58,1.12-2.71,2.71-5.03,4.79-6.71,1.68-1.36,3.75-2.32,6.15-2.79,1.76-.32,3.51-.48,5.27-.48,1.92,0,3.83.24,5.67.56.8.16,1.28.24,2.08.56,1.68.64,2.63.88,4.15,1.76.72.4,1.2.8,1.68,1.52,1.28,1.84,2.16,3.19,2.71,5.03.08.24.16.48.16.72.08.8.16,1.6.16,2.48v2.16c0,.48,0,.88-.08,1.36,0,.56-.08,1.2-.08,1.76l-.16,2.32c-.16,1.36-.32,2.95-.48,4.31-.08.48-.08.96-.08,1.44s-.08.64-.64.72c-.32.16-.64.24-.96.24-3.59.32-6.31.48-9.82.48-1.76,0-3.67-.24-3.67-1.52,0-.64.08-.88.08-1.44v-.8c.08-3.11.64-4.71.64-7.59v-.8c0-.32,0-.56-.16-.96-.24-.8-.8-1.28-1.6-1.28-.16,0-.4,0-.56.08-.48.16-.88.4-1.36.64-.64.48-1.12,1.04-1.6,1.76-.96,1.44-1.92,3.27-2.08,5.03-.32,2-.48,4.47-.48,6.47v2.32c0,4.07.24,10.7,2.95,10.7,3.11,0,3.51-2.08,3.59-2.48.16-.96.48-3.75.48-4.63v-.64c.08-.56.48-.88,1.04-.88,4.55,0,9.5.08,13.57.4.72.16,1.04.56,1.2,1.28.08.48.16.96.16,1.44,0,.24-.08.4-.08.64-.08,1.04-.08,2.16-.08,3.19-.08.8-.16,1.6-.16,2.4-.08,1.04-.24,2.08-.24,3.11,0,1.28-.16,2.64-.4,3.83,0,.24-.08.48-.08.72,0,3.43-2.55,7.03-4.55,8.7-.24.16-.4.4-.64.56-1.44,1.28-3.19,1.92-4.95,2.48-2.48.72-3.83.96-6.31,1.2h-.4l-2.23-.08c-1.12-.08-2.16-.16-3.19-.24Z"/>
      <path class="cls-1" d="M159.93,51.3c0-1.84.08-3.59.08-5.43,0-.88-.08-1.84-.08-2.71-.08-1.52-.08-3.11-.08-4.63,0-2.16,0-4.23.08-6.39,0-3.59.24-7.19.32-10.78v-5.59c.08-2.4.32-4.23.32-6.55v-.88c-.08-1.2-.16-2.48-.16-3.75v-.64c0-.56.16-.96.64-1.28.32-.24.56-.24.88-.24h.72c1.12,0,2.31-.08,3.43-.08s2.16.08,2.63.08c1.12.08,3.27.08,4.39.16h.56c.96,0,1.6.64,1.6,1.52,0,.16,0,.32-.08.56-.32,1.36-.32,2.71-.4,4.07-.16,2.31-.24,3.43-.24,5.83v3.19c0,.56-.08,1.2-.08,1.84,0,.24-.16,1.28-.16,2.16v.32c0,1.6.08,1.92.08,4.31,0,.16.16.24.32.24s.4-.08.56-.08h.96c3.11.32,5.03.48,7.9.48h.32v-.16c0-2.79,0-4.31-.08-7.11v-.8c.08-2.16.24-3.75.24-5.51,0-.56-.08-1.12-.08-1.68-.08-1.12-.08-.88-.08-2-.08-1.6-.24-3.19-.24-4.71,0-.48.08-.96.08-1.44,0-.32.08-.56.24-.8.08-.16.32-.32.56-.32h.08c.24,0,.64-.08,1.04-.08,2.63-.08,5.51-.08,8.14-.16h.88c.8,0,1.52.08,1.52,1.12,0,.64-.08,1.28-.08,1.92,0,1.36.16,2.63.16,3.91,0,.56,0,1.12-.08,1.68-.16,1.84-.16,3.27-.16,4.39v2c0,2.8.16,3.35.16,6.95v22.52c0,2.08-.16,3.51-.16,5.11,0,.56,0,1.28.08,1.92,0,.32.08.72.08,1.2,0,.88-.08,2-.08,3.03v1.04c0,.64-.08,1.2-.4,1.2h-8.78c-.16,0-.88-.08-1.04-.08s-.4-.08-.56-.16c-.56-.24-.88-1.04-.96-1.92v-5.59c0-.96-.08-1.92-.08-2.87-.08-1.2-.08-2.32-.16-3.51-.08-1.52-.08-2.55-.08-3.51v-4.71c0-.08-.24-.16-.32-.16h-.64c-1.84,0-2.08-.24-3.11-.24-.32,0-.72,0-1.28.08-1.2.08-2,.16-3.03.16h-.72c-.48,0-.96.08-.96.48v.4c0,1.12-.08,2-.08,3.35v.88c0,.88-.08,1.2-.08,1.68,0,.32,0,.56.08,1.04.16,3.11.16,6.47.32,9.9v3.51c0,.64-.56,1.12-1.2,1.2-.56.08-1.12.08-1.68.08-2.48,0-5.35-.4-7.59-.48h-3.75c-.32-.24-.64-.48-.64-.96v-7.51Z"/>
      <path class="cls-3" d="M227.56,36.93c-1.2.08-2.24.16-3.43.16h-.96c-1.92,0-3.43-.08-5.35-.08,0,0-.56,3.11-.56,5.59,0,.24.56.24.8.32,1.12.24,2.24.32,3.43.32,2.08,0,4.55-.24,6.47-.24h.16c.72,0,1.36,0,1.36,1.2,0,4.15.08,8.38.08,12.46v1.76c0,.96-1.36,1.04-2.4,1.04h-.56c-6.23,0-12.06.24-18.6.24-1.2,0-2.4,0-3.59.08h-2.08c-.24,0-.56,0-.8-.08-.48-.24-.8-.64-.8-1.28v-1.92c.08-1.68.08-3.43.08-5.11,0-11.58-.32-24.03-.32-36.57v-5.03c0-1.76.08-3.59.08-5.43v-1.04c0-.64.08-1.2.32-1.84.16-.24.32-.4.64-.4h.16c1.76,0,3.27.16,5.35.16,1.44,0,2.31.08,3.75.08,2.72.08,4.07.32,6.79.32.88,0,1.28,0,2.16-.08.88-.08,1.44-.08,2.31-.16.96-.08,2.55-.16,3.43-.16.96,0,1.52.08,2.55.08.48,0,.88.24,1.2.72.08.16.08.24.08.4v.88c.08.64,0,.96.08,1.52.08.56.16,5.75.16,6.31,0,.96-.24,1.36-1.2,1.52-1.92.24-4.87.24-7.11.24h-2.71c-.48,0-.88,0-1.04.48-.32.96-.4,2.32-.4,3.51v4.39c0,.4,0,.72.08.96.08.24.32.32.56.32,1.44,0,2.95.08,4.55.08,1.44,0,2.87-.08,4.23-.24.24,0,.4-.08.64-.08h.16c.24,0,.56.08.72.24.48.32.48.88.48,1.36v1.84c0,3.03-.16,1.28-.16,7.11v3.35c0,.24,0,.48-.16.64-.16,0-.48.08-.64.08Z"/>
    </g>
  </g>
</svg>