<?xml version="1.0" encoding="UTF-8"?>
<svg id="Layer_2" data-name="Layer 2" xmlns="http://www.w3.org/2000/svg" viewBox="0 0 130.61 27.78">
  <defs>
    <style>
      .cls-1 {
        fill: #3c2415;
      }
    </style>
  </defs>
  <g id="Front">
    <g>
      <path class="cls-1" d="M11.47,8.65c4.33,2.86,10.16,6.07,10.16,11.09,0,5.41-4.91,8.04-11.71,8.04-5.25,0-9.93-1.82-9.93-5.14,0-2.59,2.2-4.02,4.67-4.02,1.27,0,2.78.66,3.28,1.35-.19.5-.39,1.35-.39,2.12,0,.93.85,1.82,1.74,1.82s1.89-.81,1.89-2.32c0-1.39-.89-2.55-2.16-3.21C5.37,16.5.19,13.06.19,7.73.19,2.9,5.64.04,11.24.04c5.14,0,8.81,2.2,8.81,5.06,0,2.36-1.85,3.86-4.02,3.86-1.39,0-2.55-.77-2.82-1.28.15-.39.19-1,.19-1.58,0-1.31-.93-2.2-1.89-2.2-1.04,0-1.66.77-1.66,1.74,0,1.24.7,2.4,1.62,3.01Z"/>
      <path class="cls-1" d="M27.63.81c3.05,0,6.34,1.04,6.95,3.25.85,3.05,1.39,7.34,2.01,10.78,1.04-2.2,1.51-4.25,1.51-6.92,0-1.89-.85-3.63-2.09-4.87,1.43-1.82,3.98-3.05,7.3-3.05s5.76,2.51,5.76,5.76c0,5.45-7.73,11.94-7.73,14.02v1.55c0,2.78.46,4.21.46,4.98,0,.35-.31.58-.73.66-.97.15-2.47.39-4.87.39s-5.1-.23-5.72-.39c-.39-.08-.54-.35-.54-.81,0-.62.39-2.16.39-4.67v-1.7c0-2.74-5.49-11.47-6.45-12.98-.62-.97-1.51-2.28-2.32-3.01,0-1.62,2.36-2.98,6.07-2.98Z"/>
      <path class="cls-1" d="M68.62,15.22c2.01,3.59,6.34,8.62,7.77,9.7,0,1.82-3.44,2.86-5.64,2.86-2.01,0-4.02-.5-4.64-1.04-1.16-1-3.36-6.34-4.25-10.51v3.13c0,3.59.5,6.18.5,6.95,0,.35-.35.54-.73.66-.73.19-2.4.39-5.14.39s-4.87-.23-5.52-.39c-.35-.08-.54-.35-.54-.81,0-.62.42-4.13.42-6.65v-10.78c0-2.51-.27-4.56-.81-5.72.54-1.24,3.32-2.63,6.45-2.63h5.33c7.11,0,12.21,2.74,12.21,7.15,0,3.94-2.36,6.84-5.41,7.69ZM61.86,6.45v7.57c1.16-.5,2.71-1.82,2.71-4.06,0-1.74-1.16-3.09-2.71-3.52Z"/>
      <path class="cls-1" d="M78.44,19.12V7.19c0-1.78-.46-2.43-.81-2.74-.15-.15-.31-.5-.31-.85,0-1.2,2.36-3.13,5.72-3.13s6.41,1.31,6.41,3.25v14.76c0,1.85.58,3.32,1.74,3.32.58,0,1.04-.19,1.24-.46V6.84c0-1.35-.31-2.24-.77-2.63-.31-.23-.54-.5-.54-.93,0-1.43,2.97-2.82,5.79-2.82,4.02,0,6.53,1.85,6.53,5.53v15.11c0,1.51.31,2.16.42,2.39.12.23.35.39.35.7,0,1.62-1.51,3.55-4.83,3.55-2.43,0-4.25-.62-5.33-2.55-1.85,2.09-4.75,2.55-7.42,2.55-4.29,0-8.19-2.67-8.19-8.62Z"/>
      <path class="cls-1" d="M121.14,11.86c0-2.9-1.16-4.83-2.7-5.41v12.9c0,3.59.5,6.18.5,6.95,0,.35-.35.58-.73.66-1,.19-2.78.39-5.14.39-2.47,0-4.87-.23-5.52-.39-.35-.08-.54-.35-.54-.81,0-.62.42-4.13.42-6.65v-10.51c0-2.51-.35-4.56-1-5.72.46-1.62,1.97-2.9,6.1-2.9h5.87c7.11,0,12.21,3.13,12.21,8.65,0,6.88-4.83,9.08-9.31,9.08-1.04,0-1.85-.35-2.32-.89,1.08-.81,2.16-2.78,2.16-5.37Z"/>
    </g>
  </g>
</svg>